<svg width="24" height="24" viewBox="0 0 24 24" fill="none" xmlns="http://www.w3.org/2000/svg">
<path d="M6.80527 8.39961C6.44527 8.39961 6.06527 8.23959 5.80527 7.97959C5.54527 7.71959 5.40527 7.35961 5.40527 6.99961C5.40527 6.63961 5.56527 6.27961 5.80527 5.99961C6.06527 5.73961 6.42527 5.59961 6.80527 5.59961C7.16527 5.59961 7.52527 5.75961 7.78527 5.99961C8.04527 6.25961 8.20527 6.61961 8.20527 6.99961C8.20527 7.35961 8.04527 7.71959 7.78527 7.97959C7.54527 8.25959 7.16527 8.39961 6.80527 8.39961ZM13.0053 7.97959C13.2653 7.71959 13.4253 7.35961 13.4253 6.99961C13.4253 6.63961 13.2653 6.27961 13.0053 5.99961C12.7453 5.73961 12.3853 5.59961 12.0253 5.59961C11.6653 5.59961 11.2853 5.75961 11.0253 5.99961C10.7653 6.25961 10.6253 6.61961 10.6253 6.99961C10.6253 7.35961 10.7853 7.71959 11.0253 7.97959C11.2853 8.23959 11.6453 8.39961 12.0253 8.39961C12.3653 8.39961 12.7453 8.25959 13.0053 7.97959ZM18.2053 7.97959C18.4653 7.71959 18.6253 7.35961 18.6253 6.99961C18.6253 6.63961 18.4653 6.27961 18.2053 5.99961C17.9453 5.73961 17.5853 5.59961 17.2253 5.59961C16.8653 5.59961 16.4853 5.75961 16.2253 5.99961C15.9653 6.25961 15.8253 6.61961 15.8253 6.99961C15.8253 7.35961 15.9853 7.71959 16.2253 7.97959C16.4853 8.23959 16.8453 8.39961 17.2253 8.39961C17.5653 8.39961 17.9453 8.25959 18.2053 7.97959ZM7.80527 12.9796C8.06527 12.7196 8.22527 12.3596 8.22527 11.9996C8.22527 11.6396 8.06527 11.2796 7.80527 10.9996C7.54527 10.7396 7.18527 10.5996 6.82527 10.5996C6.46527 10.5996 6.08527 10.7596 5.82527 10.9996C5.56527 11.2596 5.42527 11.6196 5.42527 11.9996C5.42527 12.3596 5.58527 12.7196 5.82527 12.9796C6.08527 13.2396 6.44527 13.3996 6.82527 13.3996C7.16527 13.3996 7.54527 13.2596 7.80527 12.9796ZM13.0053 12.9796C13.2653 12.7196 13.4253 12.3596 13.4253 11.9996C13.4253 11.6396 13.2653 11.2796 13.0053 10.9996C12.7453 10.7396 12.3853 10.5996 12.0253 10.5996C11.6653 10.5996 11.2853 10.7596 11.0253 10.9996C10.7653 11.2596 10.6253 11.6196 10.6253 11.9996C10.6253 12.3596 10.7853 12.7196 11.0253 12.9796C11.2853 13.2396 11.6453 13.3996 12.0253 13.3996C12.3653 13.3996 12.7453 13.2596 13.0053 12.9796ZM18.2053 12.9796C18.4653 12.7196 18.6253 12.3596 18.6253 11.9996C18.6253 11.6396 18.4653 11.2796 18.2053 10.9996C17.9453 10.7396 17.5853 10.5996 17.2253 10.5996C16.8653 10.5996 16.4853 10.7596 16.2253 10.9996C15.9653 11.2596 15.8253 11.6196 15.8253 11.9996C15.8253 12.3596 15.9853 12.7196 16.2253 12.9796C16.4853 13.2396 16.8453 13.3996 17.2253 13.3996C17.5653 13.3996 17.9453 13.2596 18.2053 12.9796ZM7.80527 17.9796C8.06527 17.7196 8.22527 17.3596 8.22527 16.9996C8.22527 16.6396 8.06527 16.2796 7.80527 15.9996C7.54527 15.7396 7.18527 15.5996 6.82527 15.5996C6.46527 15.5996 6.08527 15.7596 5.82527 15.9996C5.56527 16.2596 5.42527 16.6196 5.42527 16.9996C5.42527 17.3596 5.58527 17.7196 5.82527 17.9796C6.08527 18.2396 6.44527 18.3996 6.82527 18.3996C7.16527 18.3996 7.54527 18.2596 7.80527 17.9796ZM13.0053 17.9796C13.2653 17.7196 13.4253 17.3596 13.4253 16.9996C13.4253 16.6396 13.2653 16.2796 13.0053 15.9996C12.7453 15.7396 12.3853 15.5996 12.0253 15.5996C11.6653 15.5996 11.2853 15.7596 11.0253 15.9996C10.7653 16.2596 10.6253 16.6196 10.6253 16.9996C10.6253 17.3596 10.7853 17.7196 11.0253 17.9796C11.2853 18.2396 11.6453 18.3996 12.0253 18.3996C12.3653 18.3996 12.7453 18.2596 13.0053 17.9796ZM18.2053 17.9796C18.4653 17.7196 18.6253 17.3596 18.6253 16.9996C18.6253 16.6396 18.4653 16.2796 18.2053 15.9996C17.9453 15.7396 17.5853 15.5996 17.2253 15.5996C16.8653 15.5996 16.4853 15.7596 16.2253 15.9996C15.9653 16.2596 15.8253 16.6196 15.8253 16.9996C15.8253 17.3596 15.9853 17.7196 16.2253 17.9796C16.4853 18.2396 16.8453 18.3996 17.2253 18.3996C17.5653 18.3996 17.9453 18.2596 18.2053 17.9796Z" fill="white"/>
</svg>
