<svg width="24" height="24" viewBox="0 0 24 24" fill="none" xmlns="http://www.w3.org/2000/svg">
<path d="M14.25 19V18C13.9352 18 13.6389 18.1482 13.45 18.4L14.25 19ZM9.75 19L10.55 18.4C10.3611 18.1482 10.0648 18 9.75 18V19ZM12.8 20.9333L13.6 21.5333L12.8 20.9333ZM11.2 20.9333L10.4 21.5333L11.2 20.9333ZM13 7C13 6.44772 12.5523 6 12 6C11.4477 6 11 6.44772 11 7H13ZM11 13C11 13.5523 11.4477 14 12 14C12.5523 14 13 13.5523 13 13H11ZM8.5 7C8.5 6.44772 8.05228 6 7.5 6C6.94772 6 6.5 6.44772 6.5 7H8.5ZM6.5 13C6.5 13.5523 6.94772 14 7.5 14C8.05228 14 8.5 13.5523 8.5 13H6.5ZM17.5 7C17.5 6.44772 17.0523 6 16.5 6C15.9477 6 15.5 6.44772 15.5 7H17.5ZM15.5 13C15.5 13.5523 15.9477 14 16.5 14C17.0523 14 17.5 13.5523 17.5 13H15.5ZM7 4H17V2H7V4ZM20 7V15H22V7H20ZM4 15V7H2V15H4ZM13.45 18.4L12 20.3333L13.6 21.5333L15.05 19.6L13.45 18.4ZM12 20.3333L10.55 18.4L8.95 19.6L10.4 21.5333L12 20.3333ZM12 20.3333L10.4 21.5333C11.2 22.6 12.8 22.6 13.6 21.5333L12 20.3333ZM2 15C2 17.7614 4.23858 20 7 20V18C5.34315 18 4 16.6569 4 15H2ZM20 15C20 16.6569 18.6569 18 17 18V20C19.7614 20 22 17.7614 22 15H20ZM17 4C18.6569 4 20 5.34315 20 7H22C22 4.23858 19.7614 2 17 2V4ZM7 2C4.23858 2 2 4.23858 2 7H4C4 5.34315 5.34315 4 7 4V2ZM17 18H14.25V20H17V18ZM9.75 18H7V20H9.75V18ZM11 7V13H13V7H11ZM6.5 7V13H8.5V7H6.5ZM15.5 7V13H17.5V7H15.5Z" fill="#2F6FC1"/>
<circle cx="12" cy="16" r="1" fill="#2F6FC1"/>
<path d="M8.5 16C8.5 16.5523 8.05228 17 7.5 17C6.94772 17 6.5 16.5523 6.5 16C6.5 15.4477 6.94772 15 7.5 15C8.05228 15 8.5 15.4477 8.5 16Z" fill="#2F6FC1"/>
<path d="M17.5 16C17.5 16.5523 17.0523 17 16.5 17C15.9477 17 15.5 16.5523 15.5 16C15.5 15.4477 15.9477 15 16.5 15C17.0523 15 17.5 15.4477 17.5 16Z" fill="#2F6FC1"/>
</svg>
