<svg width="25" height="24" viewBox="0 0 25 24" fill="none" xmlns="http://www.w3.org/2000/svg">
<rect x="11.4443" y="7" width="2" height="15" fill="#2F6FC1"/>
<rect width="2" height="2" transform="matrix(1 0 0 -1 11.4443 5)" fill="#2F6FC1"/>
<path d="M13.866 6.33247C13.866 7.04866 13.25 7.6658 12.4438 7.6658C11.6377 7.6658 11.0216 7.04866 11.0216 6.33247C11.0216 5.61627 11.6377 4.99913 12.4438 4.99913C13.25 4.99913 13.866 5.61627 13.866 6.33247Z" fill="#2F6FC1" stroke="#2F6FC1" stroke-width="0.888889"/>
<ellipse cx="12.4442" cy="1.68519" rx="1.76944" ry="1.68519" fill="#2F6FC1"/>
<path d="M4.04492 8.76306C5.67978 7.20988 8.10846 6.12324 10.8894 5.82475L13.9206 5.81641C16.7349 6.1025 19.1944 7.19503 20.8449 8.76306" stroke="#2F6FC1" stroke-width="2" stroke-linecap="round"/>
<path d="M0.622559 17.2961L3.18731 11.1895C3.39066 10.7054 4.07668 10.7054 4.28003 11.1895L6.84478 17.2961" stroke="#2F6FC1" stroke-width="1.2"/>
<path d="M0 16.711C0 16.7072 0.00309035 16.7041 0.0069025 16.7041H7.54865C7.55246 16.7041 7.55556 16.7072 7.55556 16.711C7.55556 18.18 6.36474 19.3708 4.89579 19.3708H2.65976C1.19082 19.3708 0 18.18 0 16.711Z" fill="#2F6FC1"/>
<path d="M17.9561 17.2961L20.5208 11.1895C20.7242 10.7054 21.4102 10.7054 21.6135 11.1895L24.1783 17.2961" stroke="#2F6FC1" stroke-width="1.2"/>
<path d="M17.3335 16.711C17.3335 16.7072 17.3366 16.7041 17.3404 16.7041H24.8821C24.886 16.7041 24.8891 16.7072 24.8891 16.711C24.8891 18.18 23.6982 19.3708 22.2293 19.3708H19.9933C18.5243 19.3708 17.3335 18.18 17.3335 16.711Z" fill="#2F6FC1"/>
<path d="M16.4443 23H8.44434C8.44434 21.8954 9.33977 21 10.4443 21H14.4443C15.5489 21 16.4443 21.8954 16.4443 23Z" fill="#2F6FC1"/>
<path d="M18.4443 24H6.44434C6.44434 22.8954 7.33977 22 8.44434 22H16.4443C17.5489 22 18.4443 22.8954 18.4443 24Z" fill="#2F6FC1"/>
</svg>
