<svg width="16" height="15" viewBox="0 0 16 15" fill="none" xmlns="http://www.w3.org/2000/svg">
<rect x="7.35693" y="4.58301" width="1.28571" height="8.75" fill="white"/>
<rect width="1.28571" height="1.16667" transform="matrix(1 0 0 -1 7.35693 3.41699)" fill="white"/>
<path d="M8.93313 4.19426C8.93313 4.58452 8.55312 4.96463 7.9998 4.96463C7.44648 4.96463 7.06647 4.58452 7.06647 4.19426C7.06647 3.804 7.44648 3.42389 7.9998 3.42389C8.55312 3.42389 8.93313 3.804 8.93313 4.19426Z" fill="white" stroke="white" stroke-width="0.533333"/>
<ellipse cx="7.9998" cy="1.48302" rx="1.13749" ry="0.983025" fill="white"/>
<path d="M2.60059 5.61146C3.65156 4.70544 5.21285 4.07156 7.00057 3.89745L8.94922 3.89258C10.7584 4.05947 12.3395 4.69678 13.4005 5.61146" stroke="white" stroke-width="1.2" stroke-linecap="round"/>
<path d="M0.400391 10.5895L1.8626 7.43043C2.0747 6.97219 2.72606 6.97219 2.93816 7.43043L4.40037 10.5895" stroke="white" stroke-width="0.72"/>
<path d="M0 10.2482C0 10.2459 0.00180271 10.2441 0.00402646 10.2441H4.8531C4.85532 10.2441 4.85712 10.2459 4.85712 10.2482C4.85712 11.1051 4.16248 11.7997 3.30559 11.7997H1.55153C0.694644 11.7997 0 11.1051 0 10.2482Z" fill="white"/>
<path d="M11.5435 10.5895L13.0057 7.43043C13.2178 6.97219 13.8691 6.97219 14.0812 7.43043L15.5434 10.5895" stroke="white" stroke-width="0.72"/>
<path d="M11.1431 10.2482C11.1431 10.2459 11.1449 10.2441 11.1471 10.2441H15.9962C15.9984 10.2441 16.0002 10.2459 16.0002 10.2482C16.0002 11.1051 15.3055 11.7997 14.4487 11.7997H12.6946C11.8377 11.7997 11.1431 11.1051 11.1431 10.2482Z" fill="white"/>
<path d="M10.5713 13.917H5.42845C5.42845 13.2727 5.95079 12.7503 6.59512 12.7503H9.40462C10.049 12.7503 10.5713 13.2727 10.5713 13.917Z" fill="white"/>
<path d="M11.8569 14.5H4.14268C4.14268 13.8557 4.66502 13.3333 5.30935 13.3333H10.6903C11.3346 13.3333 11.8569 13.8557 11.8569 14.5Z" fill="white"/>
</svg>
