<svg width="12" height="18" viewBox="0 0 12 18" fill="none" xmlns="http://www.w3.org/2000/svg">
<path d="M6.00017 2.95476C7.02155 2.95476 7.85236 3.78557 7.85236 4.80695C7.85236 5.82747 7.02133 6.65828 6.00017 6.65828C4.97943 6.65828 4.14841 5.82747 4.14841 4.80695C4.1482 3.78536 4.97965 2.95476 6.00017 2.95476ZM6.00017 9.27875C8.46732 9.27875 10.4737 7.27304 10.4737 4.80695C10.4737 2.33958 8.46754 0.333008 6.00017 0.333008C3.53323 0.333008 1.52665 2.33979 1.52665 4.80695C1.52665 7.27304 3.53323 9.27875 6.00017 9.27875ZM7.80996 12.9277C8.73023 12.7181 9.60846 12.3544 10.4075 11.8521C10.7017 11.667 10.9103 11.3727 10.9874 11.0338C11.0646 10.6949 11.0039 10.3393 10.8189 10.0451C10.7273 9.89931 10.6079 9.77298 10.4675 9.67335C10.3272 9.57372 10.1685 9.50274 10.0006 9.46448C9.8328 9.42622 9.65906 9.42142 9.48935 9.45036C9.31965 9.4793 9.15731 9.5414 9.01163 9.63313C7.17893 10.7853 4.82012 10.7845 2.98892 9.63313C2.84326 9.54138 2.68094 9.47925 2.51125 9.4503C2.34156 9.42135 2.16782 9.42614 1.99998 9.46441C1.83215 9.50268 1.6735 9.57366 1.53313 9.6733C1.39275 9.77295 1.2734 9.89929 1.18191 10.0451C0.99678 10.3392 0.936044 10.6948 1.01306 11.0337C1.09008 11.3725 1.29854 11.6669 1.5926 11.8521C2.39161 12.3543 3.26966 12.7179 4.18974 12.9277L1.68896 15.4289C1.4432 15.6747 1.30517 16.0081 1.30523 16.3557C1.30529 16.7033 1.44344 17.0367 1.68928 17.2825C1.93512 17.5282 2.26853 17.6662 2.61614 17.6662C2.96375 17.6661 3.2971 17.528 3.54286 17.2821L5.99974 14.8248L8.45812 17.2823C8.57967 17.4041 8.72403 17.5006 8.88294 17.5665C9.04185 17.6324 9.21218 17.6663 9.38421 17.6663C9.55624 17.6663 9.72658 17.6324 9.88549 17.5665C10.0444 17.5006 10.1888 17.4041 10.3103 17.2823C10.4322 17.1608 10.5289 17.0164 10.5949 16.8574C10.6609 16.6984 10.6949 16.528 10.6949 16.3558C10.6949 16.1837 10.6609 16.0132 10.5949 15.8542C10.5289 15.6952 10.4322 15.5508 10.3103 15.4293L7.80996 12.9277Z" fill="white"/>
</svg>
