<svg width="18" height="11" viewBox="0 0 18 11" fill="none" xmlns="http://www.w3.org/2000/svg">
<path fill-rule="evenodd" clip-rule="evenodd" d="M17.2686 0.955806C17.3892 0.554067 17.2686 0.258789 16.6952 0.258789L14.7989 0.258789C14.3167 0.258789 14.0946 0.513838 13.974 0.795164C13.974 0.795164 13.0096 3.1456 11.6435 4.67237C11.2015 5.11434 11.0006 5.2548 10.7595 5.2548C10.639 5.2548 10.4645 5.11434 10.4645 4.7126V0.955806C10.4645 0.473611 10.3246 0.258789 9.92275 0.258789L6.94288 0.258789C6.64165 0.258789 6.46042 0.48255 6.46042 0.694662C6.46042 1.1518 7.14335 1.25718 7.21378 2.54285L7.21378 5.33539C7.21378 5.94762 7.10325 6.05868 6.86216 6.05868C6.21932 6.05868 4.6557 3.69755 3.72815 0.996034C3.54638 0.470901 3.36407 0.258789 2.87944 0.258789L0.983159 0.258789C0.441366 0.258789 0.333008 0.513838 0.333008 0.795164C0.333008 1.29741 0.97598 3.78857 3.32641 7.08322C4.89355 9.33301 7.10109 10.5529 9.11006 10.5529C10.3155 10.5529 10.4645 10.282 10.4645 9.81534V8.11479C10.4645 7.573 10.5787 7.46491 10.9603 7.46491C11.2417 7.46491 11.7238 7.6055 12.849 8.69031C14.1346 9.97585 14.3465 10.5529 15.0698 10.5529H16.9661C17.5079 10.5529 17.7787 10.282 17.6224 9.74735C17.4515 9.21449 16.8377 8.44163 16.0231 7.52518C15.5811 7.00276 14.9181 6.44024 14.7173 6.15905C14.436 5.7974 14.5163 5.63676 14.7173 5.31548C14.7173 5.31548 17.0275 2.06093 17.2686 0.955942V0.955806Z" fill="white"/>
</svg>
