<svg width="18" height="12" viewBox="0 0 18 12" fill="none" xmlns="http://www.w3.org/2000/svg">
<path fill-rule="evenodd" clip-rule="evenodd" d="M15.3581 11.3405C16.0541 11.1531 16.6029 10.6043 16.7903 9.90821C17.1383 8.6366 17.1249 5.98628 17.1249 5.98628C17.1249 5.98628 17.1249 3.34935 16.7903 2.07773C16.6029 1.38168 16.0541 0.832882 15.3581 0.645486C14.0864 0.31085 8.99997 0.31085 8.99997 0.31085C8.99997 0.31085 3.92688 0.310849 2.64188 0.658871C1.94584 0.846267 1.39703 1.39507 1.20964 2.09111C0.875 3.34935 0.875 5.99966 0.875 5.99966C0.875 5.99966 0.875 8.6366 1.20964 9.90821C1.39703 10.6043 1.95922 11.1664 2.64188 11.3538C3.9135 11.6885 8.99997 11.6885 8.99997 11.6885C8.99997 11.6885 14.0864 11.6885 15.3581 11.3405ZM11.61 5.99954L7.38021 3.56339L7.38021 8.43569L11.61 5.99954Z" fill="white"/>
</svg>
